<svg width="26" height="19" viewBox="0 0 26 19" fill="none" xmlns="http://www.w3.org/2000/svg">
<path d="M14.0497 9.33678V9.20502V8.1246V7.93338L14.2343 7.88332C16.2745 7.32985 17.6613 5.44802 17.2137 3.36923L14.0497 9.33678ZM14.0497 9.33678L14.1584 9.41125M14.0497 9.33678L14.1584 9.41125M14.1584 9.41125L25.3355 17.0689C25.738 17.3458 25.8223 17.7582 25.6958 18.1037C25.5678 18.4534 25.2164 18.75 24.6974 18.75H13H1.30259C0.783598 18.75 0.432244 18.4534 0.304247 18.1037C0.177738 17.7582 0.261954 17.3458 0.664474 17.0689L11.8416 9.41125L11.9503 9.33678M14.1584 9.41125L11.9503 9.33678M11.9503 9.33678V9.20502V7.11542C11.9503 6.62323 12.3851 6.1806 12.9562 6.18998C14.1668 6.21597 15.1996 5.31663 15.1996 4.15911C15.1996 3.0148 14.1951 2.12821 13 2.12821C11.8935 2.12821 10.9504 2.88821 10.8167 3.90911M11.9503 9.33678L10.8167 3.90911M8.7098 3.90911C8.87284 1.59728 11.2798 -0.214429 14.0146 0.355223L8.7098 3.90911ZM8.7098 3.90911H10.8167M8.7098 3.90911H10.8167M5.06043 16.4192L4.3945 16.8755H5.20173H20.7983H21.6055L20.9396 16.4192L13.1413 11.0765L13 10.9797L12.8587 11.0765L5.06043 16.4192ZM14.0148 0.355265C15.6295 0.693145 16.8984 1.9187 17.2136 3.3688L14.0148 0.355265Z" stroke="black" stroke-width="0.5"/>
</svg>
