<svg width="26" height="24" viewBox="0 0 26 24" fill="none" xmlns="http://www.w3.org/2000/svg">
<mask id="path-1-inside-1_177_50" fill="white">
<path d="M23.6629 6.09943C23.6551 6.09171 23.6468 6.08529 23.639 6.07714C25.8183 3.74529 25.5708 1.04314 25.5708 1.04314L24.2037 0C22.0587 1.209 21.1721 3.43714 20.8744 4.41C19.0305 3.76586 16.5137 3.48086 12.999 3.48086C7.24388 3.48086 4.15464 4.23986 2.33638 6.09943C-0.0378555 8.52857 -0.0218223 12.6493 0.00547771 19.4751C0.00851105 20.2247 0.0115444 21.0073 0.0115444 21.8233C0.011111 23.7176 8.14911 24 12.9998 24C17.8506 24 25.9886 23.7176 25.9886 21.8237C25.9886 21.0077 25.9916 20.2256 25.9946 19.4756C26.0215 12.6493 26.0375 8.52857 23.6629 6.09943ZM24.1075 2.394C23.808 3.58071 23.1546 4.48457 22.4695 5.15186C22.4539 5.14243 22.437 5.13386 22.4209 5.12443C22.9635 3.92229 23.5701 3.03 24.1075 2.394ZM2.94348 6.71529C4.56154 5.06014 7.56931 4.35386 12.9994 4.35386C18.4299 4.35386 21.4377 5.06014 23.0562 6.71529C24.0373 7.71857 24.5581 9.11486 24.8355 10.9701C24.5737 9.78986 24.169 8.80629 23.5346 8.00786C22.0357 6.11871 18.6878 5.23886 12.999 5.23886C7.31061 5.23886 3.96311 6.11871 2.46378 8.00786C1.82981 8.80543 1.42551 9.78814 1.16378 10.9663C1.44241 9.11271 1.96328 7.71814 2.94348 6.71529ZM19.4088 14.5217H19.7932C19.8907 14.5217 19.9696 14.5864 19.9795 14.6447L20.3383 16.7807C20.3799 17.0314 20.3327 17.289 20.2187 17.4369C20.1585 17.5127 20.0874 17.5513 20.0068 17.5513H19.1961C19.115 17.5513 19.0448 17.5127 18.9855 17.4369C18.8698 17.289 18.8225 17.0314 18.8654 16.7807L19.2238 14.6451C19.2333 14.5869 19.3113 14.5217 19.4088 14.5217ZM19.8157 13.7066V12.1573H19.3872V13.7066H19.0834C18.6969 13.5493 18.4282 13.2257 18.4282 12.8486C18.4282 12.4487 18.7276 12.1059 19.1523 11.961H20.0484C20.4727 12.1059 20.773 12.4491 20.773 12.8486C20.773 13.2257 20.5043 13.5493 20.1173 13.7066H19.8157ZM1.39041 19.572C1.39258 20.235 1.39561 20.9259 1.39561 21.6476C1.39561 21.7539 1.32671 21.8396 1.24178 21.8396C1.15728 21.8396 1.08881 21.7539 1.08881 21.6476C1.08881 20.9263 1.08534 20.2359 1.08318 19.5737C1.06108 14.058 1.04721 10.4134 2.75108 8.26843C4.23091 6.40243 7.67374 5.64129 12.9994 5.64129C18.3259 5.64129 21.7688 6.402 23.2486 8.26843C24.9525 10.4134 24.9382 14.058 24.9165 19.5737C24.9139 20.2359 24.9109 20.9263 24.9109 21.6476C24.9109 21.7539 24.8428 21.8396 24.7575 21.8396C24.6725 21.8396 24.6041 21.7539 24.6041 21.6476C24.6041 20.9259 24.6071 20.235 24.6093 19.572C24.6305 14.1523 24.6444 10.5716 23.0306 8.53971C21.6136 6.75429 18.2354 6.027 12.9994 6.027C7.76344 6.027 4.38474 6.75429 2.96904 8.53971C1.35444 10.5716 1.36831 14.1523 1.39041 19.572ZM20.0246 11.5247C19.889 11.4904 19.7486 11.4664 19.6008 11.4664C19.453 11.4664 19.3126 11.4904 19.177 11.5247H2.13531C2.17474 11.3254 2.21764 11.1334 2.26574 10.9479H3.39198V10.5111H2.38838C2.59941 9.84214 2.88064 9.27214 3.25548 8.79986C4.52124 7.20429 7.70884 6.429 12.9994 6.429C18.2913 6.429 21.4784 7.20471 22.7442 8.79986C23.119 9.27257 23.4003 9.84257 23.6117 10.5111H22.5748V10.9479H23.7339C23.7816 11.1334 23.8254 11.3254 23.8648 11.5247H20.0246ZM2.05818 11.961H18.4109C18.1803 12.2023 18.0356 12.5091 18.0356 12.8486C18.0356 13.1747 18.1691 13.47 18.3836 13.7066H1.86448C1.90824 13.0779 1.97151 12.4976 2.05818 11.961ZM20.7907 11.961H23.9415C24.0282 12.4976 24.0919 13.0774 24.1352 13.7066H20.8185C21.033 13.47 21.1664 13.1747 21.1664 12.8486C21.1664 12.5091 21.0217 12.2023 20.7907 11.961ZM1.53818 22.14C1.67901 22.0329 1.77174 21.8516 1.77174 21.6476C1.77174 21.0171 1.76914 20.4099 1.76784 19.8249L1.76698 19.5707C1.75831 17.4883 1.75268 15.6853 1.83804 14.1424H19.0682C19.0964 14.1514 19.1259 14.1587 19.1545 14.1664C18.9928 14.2457 18.8672 14.3897 18.8364 14.5701L18.478 16.7061C18.4139 17.0859 18.491 17.4596 18.6834 17.7073C18.8173 17.8779 18.9989 17.9721 19.1961 17.9721H20.0068C20.2036 17.9721 20.3856 17.8779 20.5203 17.7064C20.7119 17.4596 20.7894 17.0859 20.7253 16.7061L20.3665 14.5706C20.3362 14.3897 20.2109 14.2453 20.0484 14.166C20.077 14.1583 20.1065 14.1519 20.1342 14.1424H24.1629C24.2479 15.6844 24.2422 17.4861 24.2336 19.5673L24.2318 19.9157C24.2294 20.493 24.2281 21.0703 24.2279 21.6476C24.2279 21.852 24.3207 22.0329 24.4611 22.14C22.9847 22.6209 19.1566 23.1274 12.9998 23.1274C6.84261 23.1274 3.01411 22.6204 1.53818 22.14Z"/>
</mask>
<path d="M23.639 6.07714L23.2737 5.73575L22.9507 6.08138L23.278 6.42301L23.639 6.07714ZM25.5708 1.04314L26.0688 0.997549L26.0487 0.778852L25.8741 0.645636L25.5708 1.04314ZM24.2037 0L24.507 -0.397507L24.2451 -0.597306L23.9582 -0.435576L24.2037 0ZM20.8744 4.41L20.7095 4.88202L21.2003 5.05351L21.3525 4.55631L20.8744 4.41ZM2.33638 6.09943L1.97888 5.74987L1.97881 5.74994L2.33638 6.09943ZM0.00547771 19.4751L-0.494518 19.4771L-0.494518 19.4772L0.00547771 19.4751ZM0.0115444 21.8233L0.511544 21.8234V21.8233H0.0115444ZM25.9946 19.4756L26.4946 19.4776V19.4775L25.9946 19.4756ZM22.4695 5.15186L22.2108 5.57977L22.5415 5.77964L22.8183 5.51004L22.4695 5.15186ZM22.4209 5.12443L21.9652 4.91875L21.7806 5.32789L22.1675 5.55543L22.4209 5.12443ZM23.0562 6.71529L23.4137 6.36571L23.4137 6.36571L23.0562 6.71529ZM24.8355 10.9701L24.3473 11.0784L25.33 10.8962L24.8355 10.9701ZM23.5346 8.00786L23.1429 8.31863L23.1431 8.3189L23.5346 8.00786ZM2.46378 8.00786L2.85519 8.31898L2.85542 8.31869L2.46378 8.00786ZM1.16378 10.9663L0.669333 10.892L1.65188 11.0747L1.16378 10.9663ZM19.9795 14.6447L20.4726 14.5619L20.4724 14.5604L19.9795 14.6447ZM20.3383 16.7807L20.8316 16.6989L20.8314 16.6979L20.3383 16.7807ZM20.2187 17.4369L20.6104 17.7478L20.6148 17.7421L20.2187 17.4369ZM18.9855 17.4369L18.5917 17.745L18.5917 17.745L18.9855 17.4369ZM18.8654 16.7807L19.3583 16.865L19.3585 16.8635L18.8654 16.7807ZM19.2238 14.6451L19.7169 14.7279L19.7173 14.7259L19.2238 14.6451ZM19.8157 13.7066H19.3157V14.2066H19.8157V13.7066ZM19.8157 12.1573H20.3157V11.6573H19.8157V12.1573ZM19.3872 12.1573V11.6573H18.8872V12.1573H19.3872ZM19.3872 13.7066V14.2066H19.8872V13.7066H19.3872ZM19.0834 13.7066L18.895 14.1697L18.9856 14.2066H19.0834V13.7066ZM19.1523 11.961V11.461H19.0694L18.9909 11.4878L19.1523 11.961ZM20.0484 11.961L20.21 11.4878L20.1315 11.461H20.0484V11.961ZM20.1173 13.7066V14.2066H20.2151L20.3056 14.1698L20.1173 13.7066ZM1.08318 19.5737L1.58318 19.5721L1.58317 19.5717L1.08318 19.5737ZM2.75108 8.26843L3.14259 8.57942L3.14284 8.57911L2.75108 8.26843ZM23.2486 8.26843L22.8568 8.57907L22.8571 8.57942L23.2486 8.26843ZM24.9165 19.5737L24.4165 19.5718L24.9165 19.5737ZM24.6093 19.572L24.1093 19.57V19.5704L24.6093 19.572ZM23.0306 8.53971L22.639 8.85054L22.6391 8.85068L23.0306 8.53971ZM2.96904 8.53971L3.3605 8.85078L3.36083 8.85037L2.96904 8.53971ZM19.177 11.5247V12.0247H19.2392L19.2995 12.0095L19.177 11.5247ZM2.13531 11.5247L1.64482 11.4277L1.52668 12.0247H2.13531V11.5247ZM2.26574 10.9479V10.4479H1.87882L1.78174 10.8224L2.26574 10.9479ZM3.39198 10.9479V11.4479H3.89198V10.9479H3.39198ZM3.39198 10.5111H3.89198V10.0111H3.39198V10.5111ZM2.38838 10.5111L1.91154 10.3607L1.70637 11.0111H2.38838V10.5111ZM3.25548 8.79986L3.64712 9.11069L3.64719 9.1106L3.25548 8.79986ZM22.7442 8.79986L23.136 8.4892L23.1359 8.48906L22.7442 8.79986ZM23.6117 10.5111V11.0111H24.2943L24.0885 10.3604L23.6117 10.5111ZM22.5748 10.5111V10.0111H22.0748V10.5111H22.5748ZM22.5748 10.9479H22.0748V11.4479H22.5748V10.9479ZM23.7339 10.9479L24.2182 10.8235L24.1217 10.4479H23.7339V10.9479ZM23.8648 11.5247V12.0247H24.4734L24.3553 11.4277L23.8648 11.5247ZM2.05818 11.961V11.461H1.63246L1.56457 11.8813L2.05818 11.961ZM18.4109 11.961L18.7724 12.3064L19.5801 11.461H18.4109V11.961ZM18.3836 13.7066V14.2066H19.5119L18.754 13.3707L18.3836 13.7066ZM1.86448 13.7066L1.36568 13.6718L1.32846 14.2066H1.86448V13.7066ZM23.9415 11.961L24.4351 11.8813L24.3672 11.461H23.9415V11.961ZM24.1352 13.7066V14.2066H24.6708L24.634 13.6722L24.1352 13.7066ZM20.8185 13.7066L20.4481 13.3707L19.6902 14.2066H20.8185V13.7066ZM1.76784 19.8249L2.26784 19.8237L2.26784 19.8232L1.76784 19.8249ZM1.76698 19.5707L2.26697 19.569L2.26697 19.5686L1.76698 19.5707ZM1.83804 14.1424V13.6424H1.36494L1.33881 14.1148L1.83804 14.1424ZM19.0682 14.1424L19.2204 13.6662L19.1462 13.6424H19.0682V14.1424ZM19.1545 14.1664L19.3747 14.6153L20.5682 14.0299L19.2847 13.6837L19.1545 14.1664ZM18.8364 14.5701L18.3435 14.4861L18.3433 14.4874L18.8364 14.5701ZM18.478 16.7061L18.9711 16.7894L18.9712 16.7889L18.478 16.7061ZM18.6834 17.7073L18.2886 18.014L18.2901 18.016L18.6834 17.7073ZM20.5203 17.7064L20.9134 18.0154L20.9154 18.0129L20.5203 17.7064ZM20.7253 16.7061L20.2322 16.789L20.2323 16.7894L20.7253 16.7061ZM20.3665 14.5706L19.8734 14.6533L19.8734 14.6534L20.3665 14.5706ZM20.0484 14.166L19.9182 13.6833L18.6306 14.0306L19.8292 14.6154L20.0484 14.166ZM20.1342 14.1424V13.6424H20.0516L19.9733 13.669L20.1342 14.1424ZM24.1629 14.1424L24.6622 14.1149L24.6362 13.6424H24.1629V14.1424ZM24.2336 19.5673L24.7336 19.5698L24.7336 19.5694L24.2336 19.5673ZM24.2318 19.9157L23.7318 19.9132L23.7318 19.9136L24.2318 19.9157ZM24.2279 21.6476L23.7279 21.6474V21.6476H24.2279ZM24.4611 22.14L24.6159 22.6154L25.5217 22.3204L24.7644 21.7425L24.4611 22.14ZM24.0145 5.74393C24.0061 5.73561 23.9988 5.72884 23.9938 5.72434C23.9913 5.72207 23.9891 5.72011 23.9876 5.71877C23.9869 5.7181 23.9862 5.71747 23.9857 5.71702C23.9851 5.71652 23.9848 5.71624 23.9845 5.71596C23.9831 5.71471 23.9847 5.7161 23.9871 5.7184C23.9898 5.72092 23.9944 5.72536 24.0001 5.73127L23.278 6.42301C23.2962 6.44209 23.3127 6.45674 23.3174 6.46094C23.3213 6.46438 23.3203 6.46352 23.3201 6.46334C23.3191 6.46246 23.3158 6.45939 23.3113 6.45493L24.0145 5.74393ZM24.0043 6.41854C25.1687 5.17269 25.6856 3.82609 25.9107 2.79207C26.0232 2.27531 26.0633 1.83487 26.0751 1.5205C26.081 1.36316 26.0798 1.23689 26.077 1.14782C26.0755 1.10327 26.0737 1.06797 26.0721 1.04268C26.0713 1.03004 26.0706 1.01989 26.07 1.01234C26.0697 1.00856 26.0694 1.00544 26.0692 1.00297C26.0691 1.00173 26.069 1.00066 26.069 0.999759C26.0689 0.999307 26.0689 0.998897 26.0688 0.998529C26.0688 0.998345 26.0688 0.998099 26.0688 0.998007C26.0688 0.997773 26.0688 0.997549 25.5708 1.04314C25.0729 1.08874 25.0729 1.08853 25.0729 1.08834C25.0729 1.08829 25.0729 1.08811 25.0729 1.088C25.0728 1.0878 25.0728 1.08764 25.0728 1.08751C25.0728 1.08727 25.0728 1.08718 25.0728 1.08725C25.0728 1.0874 25.0729 1.08818 25.073 1.08959C25.0732 1.09241 25.0736 1.09772 25.0741 1.10544C25.075 1.12087 25.0764 1.1459 25.0775 1.17979C25.0796 1.24761 25.0808 1.35066 25.0758 1.48307C25.0659 1.74823 25.0316 2.12906 24.9336 2.57933C24.7376 3.47934 24.2887 4.64974 23.2737 5.73575L24.0043 6.41854ZM25.8741 0.645636L24.507 -0.397507L23.9004 0.397507L25.2675 1.44065L25.8741 0.645636ZM23.9582 -0.435576C21.6415 0.870157 20.7049 3.25512 20.3963 4.26369L21.3525 4.55631C21.6393 3.61916 22.4758 1.54784 24.4492 0.435576L23.9582 -0.435576ZM21.0393 3.93798C19.1145 3.26554 16.5296 2.98086 12.999 2.98086V3.98086C16.4979 3.98086 18.9466 4.26617 20.7095 4.88202L21.0393 3.93798ZM12.999 2.98086C7.24402 2.98086 3.95564 3.72819 1.97888 5.74987L2.69388 6.44899C4.35364 4.75152 7.24374 3.98086 12.999 3.98086V2.98086ZM1.97881 5.74994C0.683857 7.07484 0.0706035 8.8362 -0.225328 11.0729C-0.520152 13.3013 -0.508117 16.0771 -0.494518 19.4771L0.505474 19.4731C0.491772 16.0473 0.48214 13.3498 0.766033 11.2041C1.04882 9.06673 1.61467 7.55316 2.69395 6.44892L1.97881 5.74994ZM-0.494518 19.4772C-0.491485 20.2268 -0.488456 21.0084 -0.488456 21.8233H0.511544C0.511544 21.0062 0.508507 20.2226 0.505474 19.4731L-0.494518 19.4772ZM-0.488456 21.8232C-0.488556 22.2622 -0.246489 22.6029 0.0547081 22.8483C0.35138 23.09 0.750195 23.2797 1.19381 23.4346C2.08549 23.746 3.29823 23.9638 4.6287 24.1186C7.29928 24.4295 10.5701 24.5 12.9998 24.5V23.5C10.5789 23.5 7.35531 23.4293 4.74432 23.1254C3.434 22.9728 2.30915 22.7649 1.52349 22.4905C1.12843 22.3526 0.853642 22.2094 0.686402 22.0731C0.523687 21.9405 0.511536 21.8579 0.511544 21.8234L-0.488456 21.8232ZM12.9998 24.5C15.4296 24.5 18.7004 24.4295 21.371 24.1187C22.7015 23.9639 23.9143 23.7461 24.806 23.4348C25.2497 23.2799 25.6485 23.0903 25.9452 22.8486C26.2464 22.6033 26.4886 22.2628 26.4886 21.8237H25.4886C25.4886 21.8581 25.4764 21.9407 25.3137 22.0733C25.1464 22.2096 24.8715 22.3527 24.4764 22.4907C23.6907 22.765 22.5658 22.9729 21.2554 23.1254C18.6444 23.4293 15.4208 23.5 12.9998 23.5V24.5ZM26.4886 21.8237C26.4886 21.0089 26.4916 20.2276 26.4946 19.4776L25.4946 19.4735C25.4916 20.2235 25.4886 21.0066 25.4886 21.8237H26.4886ZM26.4946 19.4775C26.508 16.0773 26.5199 13.3014 26.225 11.073C25.929 8.83617 25.3156 7.0748 24.0204 5.74991L23.3053 6.44895C24.3848 7.5532 24.9508 9.06675 25.2337 11.2042C25.5177 13.35 25.5081 16.0476 25.4946 19.4736L26.4946 19.4775ZM23.6227 2.27167C23.3516 3.34589 22.7586 4.17225 22.1206 4.79368L22.8183 5.51004C23.5505 4.79689 24.2645 3.81554 24.5923 2.51633L23.6227 2.27167ZM22.7281 4.72394C22.7105 4.71332 22.6942 4.70434 22.6864 4.70007C22.6814 4.69734 22.6791 4.69606 22.6766 4.69468C22.6745 4.69348 22.674 4.69319 22.6744 4.69343L22.1675 5.55543C22.1831 5.56459 22.1985 5.57301 22.2044 5.57622C22.2129 5.58094 22.2128 5.58096 22.2108 5.57977L22.7281 4.72394ZM22.8767 5.33011C23.3997 4.17118 23.9813 3.31812 24.4894 2.71668L23.7255 2.07132C23.159 2.74188 22.5272 3.67339 21.9652 4.91875L22.8767 5.33011ZM3.30101 7.06481C4.02243 6.32686 5.08092 5.77058 6.65624 5.40065C8.23489 5.02994 10.3005 4.85386 12.9994 4.85386V3.85386C10.2682 3.85386 8.1149 4.03092 6.42763 4.42713C4.73702 4.82413 3.48259 5.44857 2.58594 6.36576L3.30101 7.06481ZM12.9994 4.85386C15.6986 4.85386 17.7643 5.02994 19.343 5.40065C20.9184 5.77058 21.9771 6.32687 22.6987 7.06486L23.4137 6.36571C22.5168 5.44856 21.2623 4.82413 19.5716 4.42713C17.8842 4.03092 15.7308 3.85386 12.9994 3.85386V4.85386ZM22.6987 7.06486C23.5739 7.95987 24.0706 9.23505 24.341 11.0441L25.33 10.8962C25.0457 8.99466 24.5006 7.47728 23.4137 6.36571L22.6987 7.06486ZM25.3236 10.8619C25.0514 9.63411 24.6221 8.57277 23.9261 7.69681L23.1431 8.3189C23.7159 9.0398 24.0961 9.94561 24.3473 11.0784L25.3236 10.8619ZM23.9263 7.69708C23.085 6.63671 21.7588 5.90276 19.9651 5.43135C18.1708 4.95977 15.8635 4.73886 12.999 4.73886V5.73886C15.8233 5.73886 18.0344 5.95788 19.7109 6.39851C21.3882 6.83932 22.4854 7.48987 23.1429 8.31863L23.9263 7.69708ZM12.999 4.73886C10.1347 4.73886 7.82762 4.95977 6.03339 5.43135C4.23983 5.90276 2.91366 6.63671 2.07213 7.69703L2.85542 8.31869C3.51323 7.48986 4.61048 6.83931 6.28759 6.3985C7.96404 5.95788 10.1749 5.73886 12.999 5.73886V4.73886ZM2.07237 7.69673C1.37675 8.57186 0.947934 9.63234 0.675677 10.8579L1.65188 11.0747C1.90309 9.94394 2.28287 9.03899 2.85519 8.31898L2.07237 7.69673ZM1.65822 11.0406C1.92991 9.23323 2.42652 7.95952 3.30105 7.06478L2.58591 6.3658C1.50003 7.47677 0.954909 8.9922 0.669333 10.892L1.65822 11.0406ZM19.4088 15.0217H19.7932V14.0217H19.4088V15.0217ZM19.7932 15.0217C19.7322 15.0217 19.6763 15.002 19.6303 14.9695C19.5959 14.9451 19.5113 14.8727 19.4867 14.729L20.4724 14.5604C20.4379 14.3585 20.3088 14.2245 20.2081 14.1532C20.0958 14.0737 19.9517 14.0217 19.7932 14.0217V15.0217ZM19.4865 14.7275L19.8453 16.8635L20.8314 16.6979L20.4726 14.5619L19.4865 14.7275ZM19.8451 16.8626C19.8567 16.9326 19.8552 17.0015 19.845 17.0575C19.8341 17.1175 19.818 17.1378 19.8227 17.1316L20.6148 17.7421C20.8403 17.4494 20.8875 17.036 20.8316 16.6989L19.8451 16.8626ZM19.8272 17.1259C19.8306 17.1216 19.8477 17.1016 19.8826 17.0827C19.92 17.0625 19.9638 17.0513 20.0068 17.0513V18.0513C20.2723 18.0513 20.4773 17.9153 20.6103 17.7478L19.8272 17.1259ZM20.0068 17.0513H19.1961V18.0513H20.0068V17.0513ZM19.1961 17.0513C19.2386 17.0513 19.2831 17.0624 19.3219 17.0835C19.358 17.1031 19.3756 17.1241 19.3792 17.1287L18.5917 17.745C18.7241 17.9141 18.9291 18.0513 19.1961 18.0513V17.0513ZM19.3792 17.1287C19.3844 17.1354 19.3686 17.1161 19.3578 17.0573C19.3478 17.0024 19.3464 16.9344 19.3583 16.865L18.3726 16.6964C18.3147 17.0349 18.3616 17.451 18.5917 17.745L19.3792 17.1287ZM19.3585 16.8635L19.7169 14.7279L18.7307 14.5624L18.3723 16.698L19.3585 16.8635ZM19.7173 14.7259C19.6938 14.8692 19.6101 14.9426 19.5747 14.9679C19.5278 15.0015 19.4709 15.0217 19.4088 15.0217V14.0217C19.2493 14.0217 19.1046 14.0745 18.992 14.1552C18.8909 14.2277 18.7633 14.3628 18.7304 14.5644L19.7173 14.7259ZM20.3157 13.7066V12.1573H19.3157V13.7066H20.3157ZM19.8157 11.6573H19.3872V12.6573H19.8157V11.6573ZM18.8872 12.1573V13.7066H19.8872V12.1573H18.8872ZM19.3872 13.2066H19.0834V14.2066H19.3872V13.2066ZM19.2719 13.2434C19.0178 13.14 18.9282 12.968 18.9282 12.8486H17.9282C17.9282 13.4834 18.376 13.9585 18.895 14.1697L19.2719 13.2434ZM18.9282 12.8486C18.9282 12.7193 19.0322 12.5303 19.3137 12.4342L18.9909 11.4878C18.4231 11.6815 17.9282 12.1782 17.9282 12.8486H18.9282ZM19.1523 12.461H20.0484V11.461H19.1523V12.461ZM19.8869 12.4342C20.1685 12.5304 20.273 12.7201 20.273 12.8486H21.273C21.273 12.1782 20.7768 11.6814 20.21 11.4878L19.8869 12.4342ZM20.273 12.8486C20.273 12.9679 20.1836 13.1399 19.9291 13.2434L20.3056 14.1698C20.8251 13.9586 21.273 13.4835 21.273 12.8486H20.273ZM20.1173 13.2066H19.8157V14.2066H20.1173V13.2066ZM0.890414 19.5736C0.892583 20.2374 0.895611 20.9269 0.895611 21.6476H1.89561C1.89561 20.9248 1.89257 20.2326 1.89041 19.5704L0.890414 19.5736ZM0.895611 21.6476C0.895611 21.5951 0.912246 21.5308 0.960496 21.4706C1.00952 21.4095 1.10592 21.3396 1.24178 21.3396V22.3396C1.70017 22.3396 1.89561 21.9214 1.89561 21.6476H0.895611ZM1.24178 21.3396C1.37896 21.3396 1.47576 21.4105 1.52455 21.4717C1.57256 21.5319 1.58881 21.5959 1.58881 21.6476H0.588811C0.588811 21.9184 0.781438 22.3396 1.24178 22.3396V21.3396ZM1.58881 21.6476C1.58881 20.9252 1.58534 20.2331 1.58317 19.5721L0.58318 19.5754C0.585351 20.2386 0.588811 20.9274 0.588811 21.6476H1.58881ZM1.58317 19.5717C1.57208 16.8037 1.56394 14.5461 1.76686 12.712C1.96976 10.8781 2.37747 9.54264 3.14259 8.57942L2.35957 7.95743C1.42082 9.13922 0.983527 10.6985 0.772923 12.6021C0.562327 14.5055 0.572173 16.8281 0.583182 19.5757L1.58317 19.5717ZM3.14284 8.57911C3.78531 7.76899 4.89344 7.15121 6.55317 6.74046C8.20824 6.33087 10.3546 6.14129 12.9994 6.14129V5.14129C10.3185 5.14129 8.08066 5.33227 6.31294 5.76975C4.54988 6.20607 3.19668 6.90187 2.35932 7.95774L3.14284 8.57911ZM12.9994 6.14129C15.6446 6.14129 17.7913 6.33076 19.4464 6.74031C21.1063 7.151 22.2144 7.76877 22.8568 8.57907L23.6404 7.95779C22.803 6.90165 21.4498 6.20585 19.6866 5.76958C17.9188 5.33216 15.6807 5.14129 12.9994 5.14129V6.14129ZM22.8571 8.57942C23.6222 9.54262 24.0298 10.8781 24.2327 12.712C24.4355 14.5461 24.4274 16.8037 24.4165 19.5718L25.4165 19.5757C25.4273 16.828 25.4371 14.5055 25.2266 12.6021C25.0161 10.6986 24.5789 9.13923 23.6401 7.95743L22.8571 8.57942ZM24.4165 19.5718C24.4139 20.2335 24.4109 20.9251 24.4109 21.6476H25.4109C25.4109 20.9275 25.4139 20.2382 25.4165 19.5757L24.4165 19.5718ZM24.4109 21.6476C24.4109 21.5967 24.4268 21.5325 24.4752 21.4717C24.5249 21.4094 24.622 21.3396 24.7575 21.3396V22.3396C25.2187 22.3396 25.4109 21.9184 25.4109 21.6476H24.4109ZM24.7575 21.3396C24.8937 21.3396 24.9904 21.4098 25.0396 21.4713C25.0878 21.5317 25.1041 21.5959 25.1041 21.6476H24.1041C24.1041 21.9194 24.2975 22.3396 24.7575 22.3396V21.3396ZM25.1041 21.6476C25.1041 20.9269 25.1071 20.2374 25.1093 19.5736L24.1093 19.5704C24.1071 20.2326 24.1041 20.9248 24.1041 21.6476H25.1041ZM25.1093 19.574C25.1199 16.8741 25.1294 14.5925 24.9302 12.7322C24.7313 10.8742 24.3177 9.35632 23.4222 8.22875L22.6391 8.85068C23.3573 9.75496 23.7437 11.0434 23.9359 12.8386C24.1279 14.6316 24.1199 16.8502 24.1093 19.57L25.1093 19.574ZM23.4223 8.22889C22.6142 7.21069 21.2897 6.54463 19.5646 6.12781C17.8331 5.70945 15.6348 5.527 12.9994 5.527V6.527C15.6 6.527 17.7088 6.70819 19.3297 7.09984C20.957 7.49301 22.0301 8.08331 22.639 8.85054L23.4223 8.22889ZM12.9994 5.527C10.3641 5.527 8.1656 5.70945 6.43419 6.12781C4.70915 6.54463 3.38474 7.2107 2.57726 8.22906L3.36083 8.85037C3.96905 8.0833 5.04184 7.49302 6.66906 7.09983C8.28992 6.70819 10.3988 6.527 12.9994 6.527V5.527ZM2.57759 8.22865C1.68156 9.35623 1.26777 10.8742 1.06881 12.7322C0.869602 14.5925 0.879406 16.8742 0.890415 19.574L1.89041 19.57C1.87932 16.8501 1.87114 14.6316 2.06312 12.8386C2.25536 11.0434 2.64193 9.75505 3.3605 8.85078L2.57759 8.22865ZM20.1471 11.04C19.9863 10.9993 19.8028 10.9664 19.6008 10.9664V11.9664C19.6943 11.9664 19.7916 11.9816 19.9021 12.0095L20.1471 11.04ZM19.6008 10.9664C19.3988 10.9664 19.2153 10.9993 19.0545 11.04L19.2995 12.0095C19.41 11.9816 19.5073 11.9664 19.6008 11.9664V10.9664ZM19.177 11.0247H2.13531V12.0247H19.177V11.0247ZM2.6258 11.6218C2.66372 11.4301 2.70452 11.2478 2.74975 11.0733L1.78174 10.8224C1.73076 11.0191 1.68577 11.2207 1.64482 11.4277L2.6258 11.6218ZM2.26574 11.4479H3.39198V10.4479H2.26574V11.4479ZM3.89198 10.9479V10.5111H2.89198V10.9479H3.89198ZM3.39198 10.0111H2.38838V11.0111H3.39198V10.0111ZM2.86522 10.6616C3.06261 10.0358 3.31891 9.52423 3.64712 9.11069L2.86383 8.48903C2.44238 9.02006 2.13621 9.64848 1.91154 10.3607L2.86522 10.6616ZM3.64719 9.1106C4.17955 8.43952 5.16579 7.88402 6.73634 7.50192C8.2981 7.12195 10.3732 6.929 12.9994 6.929V5.929C10.3351 5.929 8.17107 6.12369 6.49995 6.53026C4.83761 6.93469 3.59717 7.56462 2.86377 8.48911L3.64719 9.1106ZM12.9994 6.929C15.6263 6.929 17.7016 7.12206 19.2634 7.50208C20.834 7.88423 21.8202 8.43974 22.3525 9.11065L23.1359 8.48906C22.4025 7.56484 21.1622 6.93491 19.4998 6.53042C17.8286 6.1238 15.6644 5.929 12.9994 5.929V6.929ZM22.3524 9.11052C22.6808 9.52462 22.9372 10.0364 23.135 10.6619L24.0885 10.3604C23.8634 9.64876 23.5573 9.02053 23.136 8.4892L22.3524 9.11052ZM23.6117 10.0111H22.5748V11.0111H23.6117V10.0111ZM22.0748 10.5111V10.9479H23.0748V10.5111H22.0748ZM22.5748 11.4479H23.7339V10.4479H22.5748V11.4479ZM23.2497 11.0723C23.295 11.2487 23.3367 11.4316 23.3743 11.6218L24.3553 11.4277C24.3141 11.2192 24.2682 11.0181 24.2182 10.8235L23.2497 11.0723ZM23.8648 11.0247H20.0246V12.0247H23.8648V11.0247ZM2.05818 12.461H18.4109V11.461H2.05818V12.461ZM18.0494 11.6156C17.745 11.9341 17.5356 12.3602 17.5356 12.8486H18.5356C18.5356 12.6581 18.6157 12.4704 18.7724 12.3064L18.0494 11.6156ZM17.5356 12.8486C17.5356 13.3176 17.7288 13.7288 18.0132 14.0424L18.754 13.3707C18.6094 13.2112 18.5356 13.0318 18.5356 12.8486H17.5356ZM18.3836 13.2066H1.86448V14.2066H18.3836V13.2066ZM2.36327 13.7413C2.40622 13.1243 2.468 12.5594 2.55178 12.0407L1.56457 11.8813C1.47502 12.4357 1.41027 13.0314 1.36568 13.6718L2.36327 13.7413ZM20.7907 12.461H23.9415V11.461H20.7907V12.461ZM23.4479 12.0407C23.5317 12.5596 23.5939 13.124 23.6364 13.7409L24.634 13.6722C24.5898 13.0308 24.5246 12.4355 24.4351 11.8813L23.4479 12.0407ZM24.1352 13.2066H20.8185V14.2066H24.1352V13.2066ZM21.1889 14.0424C21.4733 13.7288 21.6664 13.3176 21.6664 12.8486H20.6664C20.6664 13.0318 20.5927 13.2112 20.4481 13.3707L21.1889 14.0424ZM21.6664 12.8486C21.6664 12.3601 21.457 11.9339 21.1519 11.6153L20.4296 12.3067C20.5864 12.4706 20.6664 12.6581 20.6664 12.8486H21.6664ZM1.84092 22.5379C2.11143 22.3321 2.27174 22.0008 2.27174 21.6476H1.27174C1.27174 21.7023 1.24659 21.7336 1.23544 21.7421L1.84092 22.5379ZM2.27174 21.6476C2.27174 21.0165 2.26914 20.4073 2.26784 19.8237L1.26785 19.826C1.26915 20.4124 1.27174 21.0178 1.27174 21.6476H2.27174ZM2.26784 19.8232L2.26697 19.569L1.26698 19.5724L1.26785 19.8266L2.26784 19.8232ZM2.26697 19.5686C2.25829 17.482 2.2529 15.6951 2.33728 14.1701L1.33881 14.1148C1.25245 15.6755 1.25833 17.4945 1.26698 19.5728L2.26697 19.5686ZM1.83804 14.6424H19.0682V13.6424H1.83804V14.6424ZM18.9161 14.6187C18.9588 14.6324 19.0096 14.6452 19.0243 14.6492L19.2847 13.6837C19.2421 13.6722 19.2341 13.6705 19.2204 13.6662L18.9161 14.6187ZM18.9343 13.7175C18.6557 13.8542 18.406 14.1196 18.3435 14.4861L19.3293 14.6542C19.3293 14.6541 19.3293 14.6538 19.3298 14.6527C19.3304 14.6516 19.3318 14.6489 19.3349 14.6451C19.3415 14.6369 19.3544 14.6253 19.3747 14.6153L18.9343 13.7175ZM18.3433 14.4874L17.9849 16.6234L18.9712 16.7889L19.3295 14.6529L18.3433 14.4874ZM17.985 16.6229C17.9032 17.1075 17.9917 17.6318 18.2886 18.014L19.0783 17.4006C18.9904 17.2873 18.9247 17.0642 18.9711 16.7894L17.985 16.6229ZM18.2901 18.016C18.5072 18.2925 18.8275 18.4721 19.1961 18.4721V17.4721C19.1703 17.4721 19.1275 17.4632 19.0767 17.3985L18.2901 18.016ZM19.1961 18.4721H20.0068V17.4721H19.1961V18.4721ZM20.0068 18.4721C20.3753 18.4721 20.6958 18.2923 20.9134 18.0154L20.1273 17.3974C20.0754 17.4634 20.0319 17.4721 20.0068 17.4721V18.4721ZM20.9154 18.0129C21.2111 17.6318 21.3002 17.1078 21.2183 16.6229L20.2323 16.7894C20.2787 17.064 20.2127 17.2873 20.1253 17.3999L20.9154 18.0129ZM21.2184 16.6233L20.8596 14.4877L19.8734 14.6534L20.2322 16.789L21.2184 16.6233ZM20.8596 14.4879C20.7981 14.1208 20.549 13.8539 20.2677 13.7166L19.8292 14.6154C19.8492 14.6252 19.8617 14.6365 19.868 14.6443C19.871 14.648 19.8723 14.6505 19.8728 14.6516C19.8733 14.6526 19.8734 14.653 19.8734 14.6533L20.8596 14.4879ZM20.1787 14.6487C20.1925 14.645 20.1907 14.6458 20.2176 14.6387C20.236 14.6339 20.2641 14.6264 20.2952 14.6158L19.9733 13.669C19.9767 13.6679 19.9761 13.6683 19.9657 13.671C19.9603 13.6724 19.9555 13.6736 19.9468 13.6758C19.9392 13.6777 19.9291 13.6803 19.9182 13.6833L20.1787 14.6487ZM20.1342 14.6424H24.1629V13.6424H20.1342V14.6424ZM23.6637 14.1699C23.7477 15.6942 23.7423 17.4799 23.7336 19.5652L24.7336 19.5694C24.7422 17.4924 24.7481 15.6747 24.6622 14.1149L23.6637 14.1699ZM23.7336 19.5648L23.7318 19.9132L24.7318 19.9182L24.7336 19.5698L23.7336 19.5648ZM23.7318 19.9136C23.7294 20.4915 23.7281 21.0695 23.7279 21.6474L24.7279 21.6477C24.7281 21.0711 24.7294 20.4944 24.7318 19.9178L23.7318 19.9136ZM23.7279 21.6476C23.7279 22.0014 23.8883 22.3319 24.1577 22.5375L24.7644 21.7425C24.7531 21.7339 24.7279 21.7026 24.7279 21.6476H23.7279ZM24.3062 21.6646C22.9111 22.119 19.1522 22.6274 12.9998 22.6274V23.6274C19.1611 23.6274 23.0583 23.1227 24.6159 22.6154L24.3062 21.6646ZM12.9998 22.6274C6.84711 22.6274 3.08772 22.1186 1.69294 21.6646L1.38342 22.6154C2.9405 23.1223 6.83811 23.6274 12.9998 23.6274V22.6274Z" fill="black" mask="url(#path-1-inside-1_177_50)"/>
</svg>
