<svg width="18" height="22" viewBox="0 0 18 22" fill="none" xmlns="http://www.w3.org/2000/svg">
<path d="M13.2552 2.63602L9 8.46095L4.74478 2.63602L6.4057 0.2H11.5943L13.2552 2.63602ZM6.10316 7.06319C3.68535 8.13123 2.05 10.4515 2.05 13.2C2.05 15.0049 2.78335 16.735 4.08721 18.0099C5.39091 19.2846 7.15818 20 9 20C10.8418 20 12.6091 19.2846 13.9128 18.0099C15.2167 16.735 15.95 15.0049 15.95 13.2C15.95 10.4515 14.3146 8.13123 11.8968 7.06319L13.0016 5.53291C15.8891 6.95744 17.8 9.81901 17.8 13.2C17.8 15.4794 16.874 17.6664 15.2241 19.2795C13.5741 20.8929 11.3353 21.8 9 21.8C6.66466 21.8 4.42586 20.8929 2.77586 19.2795C1.12602 17.6664 0.2 15.4794 0.2 13.2C0.2 9.81901 2.11089 6.95744 4.99841 5.5329L6.10316 7.06319Z" stroke="white" stroke-width="0.4"/>
</svg>
