<svg width="22" height="21" viewBox="0 0 22 21" fill="none" xmlns="http://www.w3.org/2000/svg">
<mask id="path-1-inside-1_178_67" fill="white">
<path d="M16.1029 15.038C12.0195 12.7637 11.4176 11.887 8.9426 6.97003L8.85082 6.78825C6.22972 1.58255 5.25176 0.65625 3.36663 0.65625C1.30482 0.65625 0.00372428 4.73452 1.0666 7.46878C2.08616 10.0905 2.27832 11.7961 2.27832 18.583L3.11982 18.7579L4.47419 18.519C4.47419 18.519 4.18063 14.5609 4.92726 12.6912C5.40851 13.4541 6.05063 14.5369 6.88457 16.0637C8.98454 19.9054 11.0199 20.3438 13.0429 20.3438H20.5204C20.9161 20.264 21.3124 20.0081 21.3124 19.0014C21.3124 18.1053 19.5511 16.9582 16.1029 15.038ZM3.39069 1.2623C4.61272 1.26787 5.56319 1.68689 8.26163 7.04583L8.35341 7.22728C10.6266 11.7442 11.3169 13.1152 14.7399 15.0127C14.0054 15.0675 12.6455 15.5636 12.6455 15.5636C9.77035 13.6408 7.6446 9.80437 6.44972 7.35328C6.07022 6.57497 5.74194 5.90264 5.45801 5.45081C4.77841 4.3703 3.85682 3.99098 2.93866 3.88172C2.61382 3.03614 2.53132 2.0078 2.82282 1.55269C2.88572 1.45425 3.01291 1.31808 3.39069 1.2623ZM3.8056 15.3172C3.74166 16.3889 3.76813 17.4195 3.79494 18.0219L3.09644 18.1322L3.10813 13.711C3.18238 12.2899 3.35529 11.0959 3.72447 10.9905C3.72447 10.9905 3.95788 11.2202 4.51957 12.0609C4.12872 12.7457 3.89601 13.815 3.8056 15.3172ZM4.0696 6.7492C3.69319 5.92233 3.36285 5.18733 3.09438 4.53534C3.83241 4.6223 4.43947 5.02983 4.89666 5.75663C5.16341 6.18089 5.48482 6.84042 5.8571 7.60331C7.06916 10.0898 8.88966 13.8127 11.8559 15.8435C8.78619 16.5867 7.53907 14.361 4.0696 6.7492Z"/>
</mask>
<path d="M16.1029 15.038L15.6163 15.9116L15.6164 15.9116L16.1029 15.038ZM8.9426 6.97003L9.83582 6.52042L9.83527 6.51932L8.9426 6.97003ZM8.85082 6.78825L7.95765 7.23797L7.95815 7.23896L8.85082 6.78825ZM1.0666 7.46878L0.134543 7.83109L0.134595 7.83123L1.0666 7.46878ZM2.27832 18.583H1.27832V19.3966L2.07483 19.5621L2.27832 18.583ZM3.11982 18.7579L2.91633 19.737L3.10437 19.7761L3.29351 19.7427L3.11982 18.7579ZM4.47419 18.519L4.64789 19.5038L5.53833 19.3468L5.47145 18.4451L4.47419 18.519ZM4.92726 12.6912L5.77303 12.1577L4.72621 10.4982L3.99857 12.3204L4.92726 12.6912ZM6.88457 16.0637L6.00695 16.5431L6.0071 16.5433L6.88457 16.0637ZM20.5204 20.3438V21.3438H20.6202L20.718 21.324L20.5204 20.3438ZM8.26163 7.04583L7.36847 7.49557L7.36929 7.49719L8.26163 7.04583ZM8.35341 7.22728L9.24667 6.77774L9.24575 6.77592L8.35341 7.22728ZM14.7399 15.0127L14.8143 16.0099L18.1523 15.7609L15.2248 14.1381L14.7399 15.0127ZM12.6455 15.5636L12.0896 16.3949L12.5114 16.677L12.9882 16.5031L12.6455 15.5636ZM6.44972 7.35328L7.34861 6.91509L7.34857 6.91501L6.44972 7.35328ZM5.45801 5.45081L6.3047 4.91873L6.3045 4.91841L5.45801 5.45081ZM2.93866 3.88172L2.00518 4.24033L2.2215 4.80343L2.82049 4.87471L2.93866 3.88172ZM2.82282 1.55269L3.6649 2.09204L3.66545 2.09117L2.82282 1.55269ZM3.8056 15.3172L2.80741 15.2571L2.80737 15.2576L3.8056 15.3172ZM3.79494 18.0219L3.95085 19.0097L4.83369 18.8704L4.79395 17.9775L3.79494 18.0219ZM3.09644 18.1322L2.09645 18.1295L2.09335 19.3029L3.25235 19.12L3.09644 18.1322ZM3.10813 13.711L2.10949 13.6589L2.1082 13.6836L2.10813 13.7084L3.10813 13.711ZM3.72447 10.9905L4.42588 10.2778L4.01052 9.86904L3.45012 10.0289L3.72447 10.9905ZM4.51957 12.0609L5.38807 12.5566L5.6946 12.0195L5.35105 11.5053L4.51957 12.0609ZM3.09438 4.53534L3.21139 3.54221L1.52202 3.34318L2.1697 4.9161L3.09438 4.53534ZM4.89666 5.75663L5.74324 5.22436L5.74312 5.22417L4.89666 5.75663ZM5.8571 7.60331L6.75599 7.16515L6.7558 7.16476L5.8571 7.60331ZM11.8559 15.8435L12.0912 16.8154L14.2738 16.287L12.4208 15.0184L11.8559 15.8435ZM16.5895 14.1643C14.5645 13.0365 13.5242 12.3183 12.6749 11.3396C11.8016 10.3333 11.0863 9.00477 9.83582 6.52042L8.04938 7.41964C9.27385 9.85224 10.097 11.4205 11.1643 12.6504C12.2556 13.9079 13.5579 14.7652 15.6163 15.9116L16.5895 14.1643ZM9.83527 6.51932L9.74349 6.33754L7.95815 7.23896L8.04993 7.42074L9.83527 6.51932ZM9.74399 6.33853C8.44065 3.75001 7.48517 2.0941 6.5703 1.09484C6.09495 0.57563 5.60069 0.198492 5.03969 -0.0387215C4.47935 -0.275657 3.92105 -0.34375 3.36663 -0.34375V1.65625C3.75478 1.65625 4.02564 1.70394 4.26077 1.80337C4.49525 1.90251 4.76275 2.08231 5.09517 2.44538C5.79584 3.2107 6.63989 4.62079 7.95765 7.23797L9.74399 6.33853ZM3.36663 -0.34375C2.49492 -0.34375 1.77916 0.0923253 1.25569 0.655183C0.736124 1.21385 0.351692 1.94817 0.0954144 2.72323C-0.412866 4.26041 -0.496705 6.2072 0.134543 7.83109L1.99866 7.10647C1.56703 5.9961 1.6023 4.53662 1.9943 3.35111C2.18816 2.76481 2.44916 2.30868 2.72022 2.01722C2.98738 1.72996 3.20744 1.65625 3.36663 1.65625V-0.34375ZM0.134595 7.83123C1.07934 10.2606 1.27832 11.7955 1.27832 18.583H3.27832C3.27832 11.7967 3.09298 9.92043 1.9986 7.10633L0.134595 7.83123ZM2.07483 19.5621L2.91633 19.737L3.3233 17.7788L2.4818 17.604L2.07483 19.5621ZM3.29351 19.7427L4.64789 19.5038L4.3005 17.5342L2.94613 17.7731L3.29351 19.7427ZM4.47419 18.519C5.47145 18.4451 5.47146 18.4452 5.47147 18.4453C5.47147 18.4453 5.47147 18.4453 5.47147 18.4453C5.47147 18.4454 5.47147 18.4453 5.47147 18.4452C5.47145 18.445 5.47142 18.4446 5.47137 18.444C5.47128 18.4426 5.47112 18.4404 5.47089 18.4372C5.47044 18.4309 5.46975 18.4209 5.46885 18.4075C5.46706 18.3806 5.46444 18.3398 5.46132 18.2867C5.45508 18.1804 5.44686 18.0249 5.43921 17.8318C5.42388 17.4448 5.41102 16.9109 5.42061 16.3226C5.4406 15.0956 5.55814 13.8078 5.85594 13.0621L3.99857 12.3204C3.54974 13.4443 3.44075 15.0704 3.42087 16.29C3.41052 16.9249 3.42439 17.4974 3.44077 17.9109C3.44898 18.1181 3.45786 18.2864 3.46476 18.4039C3.46821 18.4627 3.47117 18.5088 3.4733 18.5408C3.47437 18.5568 3.47524 18.5693 3.47586 18.578C3.47616 18.5824 3.47641 18.5859 3.47659 18.5884C3.47668 18.5896 3.47676 18.5906 3.47681 18.5914C3.47684 18.5918 3.47687 18.5921 3.47689 18.5924C3.4769 18.5925 3.47691 18.5927 3.47691 18.5927C3.47692 18.5929 3.47693 18.593 4.47419 18.519ZM4.08148 13.2248C4.54939 13.9665 5.18091 15.0307 6.00695 16.5431L7.76218 15.5843C6.92035 14.0431 6.26762 12.9417 5.77303 12.1577L4.08148 13.2248ZM6.0071 16.5433C7.11169 18.5641 8.25867 19.7998 9.49355 20.5109C10.7376 21.2273 11.9564 21.3438 13.0429 21.3438V19.3438C12.1063 19.3438 11.296 19.241 10.4916 18.7778C9.67809 18.3093 8.75742 17.405 7.76203 15.584L6.0071 16.5433ZM13.0429 21.3438H20.5204V19.3438H13.0429V21.3438ZM20.718 21.324C21.0623 21.2547 21.5221 21.0812 21.8673 20.6168C22.1935 20.1781 22.3124 19.6187 22.3124 19.0014H20.3124C20.3124 19.3908 20.2332 19.4627 20.2623 19.4235C20.279 19.4011 20.3046 19.3792 20.3299 19.3653C20.35 19.3543 20.3538 19.3572 20.3229 19.3635L20.718 21.324ZM22.3124 19.0014C22.3124 18.4436 22.0406 17.9818 21.7525 17.635C21.4577 17.2802 21.0552 16.9368 20.592 16.5972C19.6637 15.9166 18.3095 15.1221 16.5894 14.1643L15.6164 15.9116C17.3445 16.874 18.5951 17.6131 19.4095 18.2102C19.8177 18.5095 20.071 18.7408 20.2142 18.9132C20.3641 19.0935 20.3124 19.1112 20.3124 19.0014H22.3124ZM3.38613 2.26229C3.633 2.26341 3.77599 2.28586 3.90975 2.34049C4.04578 2.39605 4.24906 2.51734 4.54335 2.8309C5.16227 3.49034 6.0196 4.8168 7.36847 7.49557L9.15479 6.59609C7.80522 3.91592 6.8381 2.3534 6.00166 1.4622C5.56828 1.00045 5.13616 0.681005 4.66596 0.488963C4.19349 0.295995 3.7594 0.263969 3.39526 0.262307L3.38613 2.26229ZM7.36929 7.49719L7.46107 7.67864L9.24575 6.77592L9.15397 6.59447L7.36929 7.49719ZM7.46015 7.67682C8.58026 9.90252 9.36745 11.4758 10.3243 12.7138C11.318 13.9996 12.4685 14.8969 14.2551 15.8873L15.2248 14.1381C13.5883 13.2309 12.6821 12.494 11.9067 11.4907C11.0943 10.4396 10.3998 9.06901 9.24667 6.77774L7.46015 7.67682ZM14.6656 14.0155C14.1761 14.052 13.5572 14.2214 13.1272 14.3517C12.8977 14.4213 12.6935 14.4887 12.5468 14.5387C12.4732 14.5638 12.4135 14.5847 12.3716 14.5995C12.3506 14.607 12.3341 14.6129 12.3225 14.6171C12.3166 14.6192 12.312 14.6208 12.3087 14.622C12.3071 14.6226 12.3058 14.6231 12.3048 14.6235C12.3043 14.6236 12.3038 14.6238 12.3035 14.6239C12.3033 14.624 12.3032 14.624 12.3031 14.6241C12.303 14.6241 12.3029 14.6241 12.3029 14.6241C12.3028 14.6242 12.3027 14.6242 12.6455 15.5636C12.9882 16.5031 12.9882 16.5031 12.9881 16.5031C12.9881 16.5031 12.988 16.5031 12.988 16.5031C12.988 16.5031 12.9879 16.5032 12.9879 16.5032C12.9879 16.5032 12.988 16.5031 12.9882 16.5031C12.9885 16.503 12.9891 16.5027 12.9901 16.5024C12.9919 16.5017 12.9951 16.5006 12.9994 16.499C13.008 16.4959 13.0214 16.4911 13.0391 16.4849C13.0744 16.4724 13.1267 16.4541 13.1921 16.4318C13.3233 16.3871 13.505 16.327 13.7073 16.2657C14.1409 16.1343 14.5692 16.0282 14.8143 16.0099L14.6656 14.0155ZM13.2014 14.7324C10.5757 12.9764 8.54844 9.37636 7.34861 6.91509L5.55084 7.79147C6.74076 10.2324 8.96503 14.3053 12.0896 16.3949L13.2014 14.7324ZM7.34857 6.91501C6.97922 6.15752 6.6241 5.427 6.3047 4.91873L4.61131 5.98289C4.85978 6.37828 5.16123 6.99242 5.55088 7.79155L7.34857 6.91501ZM6.3045 4.91841C5.4278 3.52452 4.19983 3.02475 3.05683 2.88873L2.82049 4.87471C3.51381 4.95722 4.12902 5.21608 4.61151 5.98322L6.3045 4.91841ZM3.87215 3.5231C3.74496 3.19202 3.66634 2.82441 3.64787 2.5118C3.63871 2.35668 3.64556 2.23481 3.65934 2.14991C3.67431 2.05769 3.69028 2.05241 3.6649 2.09204L1.98074 1.01333C1.66009 1.51395 1.62302 2.15026 1.65135 2.62975C1.68247 3.15649 1.80752 3.72584 2.00518 4.24033L3.87215 3.5231ZM3.66545 2.09117C3.65402 2.10906 3.63323 2.13849 3.60253 2.17011C3.57166 2.20192 3.54004 2.22642 3.51174 2.24379C3.45638 2.27776 3.44595 2.26498 3.53676 2.25157L3.24462 0.273023C2.95765 0.315395 2.69474 0.398589 2.46562 0.539199C2.22332 0.687899 2.07445 0.866689 1.98018 1.0142L3.66545 2.09117ZM2.80737 15.2576C2.74054 16.3779 2.76836 17.4468 2.79593 18.0664L4.79395 17.9775C4.76791 17.3922 4.74278 16.3998 4.80382 15.3768L2.80737 15.2576ZM3.63904 17.0342L2.94054 17.1444L3.25235 19.12L3.95085 19.0097L3.63904 17.0342ZM4.09644 18.1348L4.10813 13.7137L2.10813 13.7084L2.09645 18.1295L4.09644 18.1348ZM4.10677 13.7632C4.14315 13.0669 4.20203 12.4714 4.28597 12.055C4.32897 11.8418 4.36877 11.7267 4.38957 11.682C4.43633 11.5814 4.35271 11.8512 3.99882 11.9522L3.45012 10.0289C2.91165 10.1825 2.66796 10.6411 2.57615 10.8385C2.45838 11.0917 2.38109 11.3836 2.32543 11.6597C2.21206 12.222 2.14736 12.9341 2.10949 13.6589L4.10677 13.7632ZM3.72447 10.9905C3.02307 11.7033 3.02285 11.7031 3.02263 11.7029C3.02256 11.7028 3.02235 11.7026 3.02221 11.7025C3.02193 11.7022 3.02165 11.7019 3.02137 11.7016C3.02083 11.7011 3.0203 11.7006 3.01979 11.7001C3.01876 11.699 3.0178 11.6981 3.01692 11.6972C3.01514 11.6954 3.01365 11.6939 3.01243 11.6927C3.00999 11.6902 3.00866 11.6888 3.00845 11.6885C3.00804 11.6881 3.01203 11.6923 3.02062 11.702C3.03785 11.7215 3.07287 11.7623 3.12714 11.8309C3.23597 11.9685 3.41902 12.2137 3.68809 12.6164L5.35105 11.5053C5.05843 11.0674 4.84394 10.7775 4.69564 10.59C4.62134 10.4961 4.5629 10.427 4.51883 10.3771C4.49675 10.3522 4.47812 10.3319 4.46275 10.3156C4.45506 10.3074 4.44817 10.3003 4.44204 10.294C4.43897 10.2909 4.43609 10.288 4.4334 10.2853C4.43206 10.2839 4.43076 10.2826 4.42951 10.2814C4.42888 10.2807 4.42826 10.2801 4.42766 10.2795C4.42736 10.2792 4.42706 10.2789 4.42676 10.2787C4.42661 10.2785 4.42639 10.2783 4.42632 10.2782C4.4261 10.278 4.42588 10.2778 3.72447 10.9905ZM3.65107 11.5652C3.14195 12.4572 2.9 13.7187 2.80741 15.2571L4.80379 15.3773C4.89201 13.9114 5.1155 13.0342 5.38807 12.5566L3.65107 11.5652ZM4.97974 6.3349C4.60307 5.50746 4.27974 4.78766 4.01906 4.15459L2.1697 4.9161C2.44596 5.58699 2.78331 6.3372 3.15946 7.16351L4.97974 6.3349ZM2.97737 5.52847C3.37085 5.57483 3.72869 5.77796 4.05021 6.28908L5.74312 5.22417C5.15026 4.2817 4.29397 3.66976 3.21139 3.54221L2.97737 5.52847ZM4.05009 6.2889C4.28107 6.65627 4.57477 7.25573 4.9584 8.04187L6.7558 7.16476C6.39487 6.42512 6.04575 5.70551 5.74324 5.22436L4.05009 6.2889ZM4.95821 8.04148C6.14578 10.4778 8.06883 14.4627 11.291 16.6687L12.4208 15.0184C9.7105 13.1628 7.99254 9.70191 6.75599 7.16515L4.95821 8.04148ZM11.6206 14.8716C10.9814 15.0264 10.5414 15.0027 10.1792 14.8686C9.80675 14.7308 9.39287 14.4305 8.89429 13.8058C7.86002 12.5097 6.73466 10.1851 4.97954 6.33446L3.15966 7.16395C4.874 10.9251 6.10695 13.5193 7.33103 15.0532C7.96162 15.8435 8.65193 16.436 9.48508 16.7443C10.3285 17.0564 11.1956 17.0323 12.0912 16.8154L11.6206 14.8716Z" fill="white" mask="url(#path-1-inside-1_178_67)"/>
</svg>
